<svg width="180" height="148" fill="none" xmlns="http://www.w3.org/2000/svg"><g filter="url(#filter0_d_144_256)"><path d="M174.677 109.904l-8.328 18.083h-4.47l-12.769-1.625-60.627-3.067-6.683-.427-27.601-1.579-6.586-.587-31.766-2.051-7.03-.449-1.493 2.674L5 116.406 70.47 1l53.459 47.95 50.748 60.954z" fill="#D9D9D9"/><path d="M70.47 7.705L8.815 118.202M70.47 7.705l91.41 120.282M70.469 7.705V1m0 0l53.46 47.95 50.748 60.954-8.328 18.083h-4.47M70.469 1L5 116.406l2.324 4.47 1.492-2.674m0 0l7.031.449m146.032 9.336l-12.769-1.625m-94.911-5.073V69.171l27.601.898v52.799m-27.6-1.579l27.601 1.579M54.2 121.289l-6.586-.587m101.497 5.66l-42.613-55.395-18.014-.655v52.983m60.627 3.067l-60.627-3.067m-72.636-4.644l27.311-49.987 4.455.204v51.834m-31.766-2.051l31.766 2.051m34.187 2.166l6.683.427M70.469 18.677L46.824 61.954l54.636 1.703-1.173-1.703-29.818-43.277z" stroke="#814500"/></g><path d="M99.82 62.754l-51.777-1.74L70.5 20.136l29.32 42.62zm-53.024 57.405l-29.943-1.739 26.2-48.708h3.743v50.447zm34.575-49.577l-26.465-.87v50.817l26.465 1.74V70.582zm24.688.87l-16.843-.265v51.582l58.014 2.609-41.171-53.926z" fill="#000" fill-opacity=".71"/><path d="M7.495 119.29l-1.872-2.61L69.876 3.61v3.478L7.495 119.29zm158.449 7.828h-3.743L71.124 7.958V2.74l53.024 46.969 49.905 60.014-8.109 17.396z" fill="#662020"/><mask id="a" fill="#fff"><path fill-rule="evenodd" clip-rule="evenodd" d="M53.384 89.76c-3.913 2.05-6.36 5.92-8.191 12.955-3.436 13.19-1.777 27.138 4.12 34.648 6.62 8.432 11.442 7.936 16.947-1.742 4.91-8.633 6.538-17.018 5.257-27.076-.98-7.705-3.98-14.707-7.357-17.18-3.136-2.297-8.056-3.03-10.776-1.604zm88.598 3.584c-2.377 2.026-5.211 5.58-6.298 7.898-4.411 9.409-5.922 26.31-3.186 35.626 2.658 9.047 9.865 12.985 14.557 7.952 4.037-4.327 5.754-16.706 3.418-24.647-1.343-4.565-3.008-6.096-6.63-6.096-2.383 0-3.333.76-5.319 4.253l-2.418 4.251.474-3.945c.69-5.745 2.952-11.698 5.23-13.769 2.73-2.483 3.879-2.272 5.175.947 1.052 2.609-1.485-3.314.91-6.329-.11-4.995-.513-9.25-.896-9.454-.383-.204-2.64 1.287-5.017 3.313zm-66.878-1.628c-2.891.456-2.943.54-1.915 3.119 1.163 2.92 1.36 18.171.459 35.592-.38 7.35-.808 10.017-1.814 11.311-.725.931-1.167 1.958-.983 2.282.185.323 3.508.248 7.385-.168l7.05-.754-1.989-4.412c-2.042-4.532-2.32-7.105-2.13-19.712l.102-6.733 1.662 5.508c.914 3.03 2.032 8.155 2.484 11.388 1.212 8.676 2.48 7.113 5.438-6.712 1.396-6.519 2.815-12.303 3.155-12.854.358-.581.42 4.6.145 12.345-.373 10.537-.77 14.082-1.884 16.832l-1.41 3.484h7.706c4.238 0 7.697-.413 7.686-.918-.01-.504-.95-2.524-2.089-4.489l-2.069-3.569v-16.701c0-12.959.233-17.233 1.043-19.076 1.017-2.317 1.086-2.292 2.785 1.059 1.711 3.373 1.742 3.793 1.742 23.942v20.506l6.44-.408c8.605-.546 13.653-1.526 14.077-2.733.192-.546.55-5.878.796-11.849l.448-10.859-2.607 6.861c-3.078 8.096-5.464 10.89-9.299 10.89-3.221 0-3.375-.275-4.001-7.156-.442-4.87-.385-5.086 1.35-5.086 1.32 0 2.113 1.026 2.925 3.786.612 2.083 1.282 3.49 1.488 3.128.205-.362.146-6.253-.132-13.091l-.506-12.432-1.253 4.921c-.689 2.707-1.953 5.579-2.808 6.385-1.49 1.401-1.536 1.299-1.103-2.504.248-2.18.451-4.998.451-6.26 0-3.682 2.517-7.192 5.16-7.192 1.797 0 2.813.916 4.177 3.767.991 2.071 1.807 4.412 1.813 5.203.006.832-.391-1.478 0-2.543.371-1.01 1.365-2.249 1.371-5.371l.011-5.68-12.602-.46c-6.931-.253-14.877-.258-17.659-.01l-5.057.449-.86 6.753c-.472 3.714-1.247 8.376-1.72 10.359l-.863 3.606-2.203-8.659c-1.211-4.762-2.202-9.206-2.202-9.873 0-2.098-2.73-6.12-4.003-5.895-.67.117-2.555.424-4.188.683zm84.064 1.857c-.02 3.56-2.135 11.709-4.824 18.578-1.167 2.985-2.123 6.843-2.123 8.573 0 3.11.063 3.146 5.433 3.146h5.431l-.409 6.548c-.225 3.602-.974 8.062-1.664 9.912l-1.253 3.364 6.152-.878c3.384-.483 6.286-1.093 6.45-1.356.163-.262-.504-1.987-1.482-3.83-1.211-2.283-1.89-5.21-2.126-9.169-.325-5.442-.244-5.815 1.268-5.815.888 0 2.053 1.098 2.587 2.441 1.444 3.622 1.892 1.784 1.892-7.755v-8.579l-1.611 2.663c-.886 1.464-2.187 2.661-2.89 2.661-1.182 0-1.246-.884-.845-11.629l.435-11.63h-5.203c-4.927 0-5.204.146-5.218 2.755zM18.22 96.498c.78 4.493.78 5.617.78 22.002 0 13.683.712 17.636-.145 19.787-1.054 2.648-1.021 2.721 1.219 2.735 1.266.007 3.509.363 4.984.792l2.682.78-1.153-3.919c-.634-2.156-1.33-6.561-1.548-9.789l-.395-5.871 2.695-.783c1.483-.431 3.76-.789 5.06-.797l2.363-.013-.418 8.759c-.23 4.817-.745 9.334-1.145 10.038-1.613 2.835-.601 3.571 3.897 2.832 2.544-.417 4.74-.963 4.882-1.213.142-.249-.216-2.449-.795-4.887-1.476-6.211-1.05-31.982.695-41.974.427-2.449.208-2.575-4.479-2.575-2.71 0-4.917.332-4.903.739.014.406.472 2.115 1.02 3.798.547 1.683 1.006 5.613 1.02 8.732.027 6.474-.573 7.135-6.496 7.165l-3.387.017.5-7.038c.275-3.87.945-8.553 1.49-10.405l.99-3.368H16.5l1.72 4.456zm42.588 2.28c3.475 4.281 3.738 16.277.62 28.254-2.008 7.71-3.861 9.906-6.648 7.878-2.567-1.871-3.788-6.209-3.722-13.231.084-8.988 1.495-16.225 4.033-20.688 2.57-4.52 3.539-4.894 5.717-2.212zm102.936 13.653c-.319 2.23-.886 2.87-2.543 2.87-1.174 0-2.03-.418-1.902-.93.128-.512 1.172-3.922 2.321-7.579l2.089-6.648.222 4.708c.122 2.589.038 5.999-.187 7.579zm-18.789 16.931c.51 4.779-.876 10.811-2.62 11.401-1.531.518-3.342-5.62-3.342-11.323 0-2.822.528-5.274 1.504-6.991l1.504-2.644 1.259 2.732c.692 1.502 1.454 4.574 1.695 6.825z"/></mask><path fill-rule="evenodd" clip-rule="evenodd" d="M53.384 89.76c-3.913 2.05-6.36 5.92-8.191 12.955-3.436 13.19-1.777 27.138 4.12 34.648 6.62 8.432 11.442 7.936 16.947-1.742 4.91-8.633 6.538-17.018 5.257-27.076-.98-7.705-3.98-14.707-7.357-17.18-3.136-2.297-8.056-3.03-10.776-1.604zm88.598 3.584c-2.377 2.026-5.211 5.58-6.298 7.898-4.411 9.409-5.922 26.31-3.186 35.626 2.658 9.047 9.865 12.985 14.557 7.952 4.037-4.327 5.754-16.706 3.418-24.647-1.343-4.565-3.008-6.096-6.63-6.096-2.383 0-3.333.76-5.319 4.253l-2.418 4.251.474-3.945c.69-5.745 2.952-11.698 5.23-13.769 2.73-2.483 3.879-2.272 5.175.947 1.052 2.609-1.485-3.314.91-6.329-.11-4.995-.513-9.25-.896-9.454-.383-.204-2.64 1.287-5.017 3.313zm-66.878-1.628c-2.891.456-2.943.54-1.915 3.119 1.163 2.92 1.36 18.171.459 35.592-.38 7.35-.808 10.017-1.814 11.311-.725.931-1.167 1.958-.983 2.282.185.323 3.508.248 7.385-.168l7.05-.754-1.989-4.412c-2.042-4.532-2.32-7.105-2.13-19.712l.102-6.733 1.662 5.508c.914 3.03 2.032 8.155 2.484 11.388 1.212 8.676 2.48 7.113 5.438-6.712 1.396-6.519 2.815-12.303 3.155-12.854.358-.581.42 4.6.145 12.345-.373 10.537-.77 14.082-1.884 16.832l-1.41 3.484h7.706c4.238 0 7.697-.413 7.686-.918-.01-.504-.95-2.524-2.089-4.489l-2.069-3.569v-16.701c0-12.959.233-17.233 1.043-19.076 1.017-2.317 1.086-2.292 2.785 1.059 1.711 3.373 1.742 3.793 1.742 23.942v20.506l6.44-.408c8.605-.546 13.653-1.526 14.077-2.733.192-.546.55-5.878.796-11.849l.448-10.859-2.607 6.861c-3.078 8.096-5.464 10.89-9.299 10.89-3.221 0-3.375-.275-4.001-7.156-.442-4.87-.385-5.086 1.35-5.086 1.32 0 2.113 1.026 2.925 3.786.612 2.083 1.282 3.49 1.488 3.128.205-.362.146-6.253-.132-13.091l-.506-12.432-1.253 4.921c-.689 2.707-1.953 5.579-2.808 6.385-1.49 1.401-1.536 1.299-1.103-2.504.248-2.18.451-4.998.451-6.26 0-3.682 2.517-7.192 5.16-7.192 1.797 0 2.813.916 4.177 3.767.991 2.071 1.807 4.412 1.813 5.203.006.832-.391-1.478 0-2.543.371-1.01 1.365-2.249 1.371-5.371l.011-5.68-12.602-.46c-6.931-.253-14.877-.258-17.659-.01l-5.057.449-.86 6.753c-.472 3.714-1.247 8.376-1.72 10.359l-.863 3.606-2.203-8.659c-1.211-4.762-2.202-9.206-2.202-9.873 0-2.098-2.73-6.12-4.003-5.895-.67.117-2.555.424-4.188.683zm84.064 1.857c-.02 3.56-2.135 11.709-4.824 18.578-1.167 2.985-2.123 6.843-2.123 8.573 0 3.11.063 3.146 5.433 3.146h5.431l-.409 6.548c-.225 3.602-.974 8.062-1.664 9.912l-1.253 3.364 6.152-.878c3.384-.483 6.286-1.093 6.45-1.356.163-.262-.504-1.987-1.482-3.83-1.211-2.283-1.89-5.21-2.126-9.169-.325-5.442-.244-5.815 1.268-5.815.888 0 2.053 1.098 2.587 2.441 1.444 3.622 1.892 1.784 1.892-7.755v-8.579l-1.611 2.663c-.886 1.464-2.187 2.661-2.89 2.661-1.182 0-1.246-.884-.845-11.629l.435-11.63h-5.203c-4.927 0-5.204.146-5.218 2.755zM18.22 96.498c.78 4.493.78 5.617.78 22.002 0 13.683.712 17.636-.145 19.787-1.054 2.648-1.021 2.721 1.219 2.735 1.266.007 3.509.363 4.984.792l2.682.78-1.153-3.919c-.634-2.156-1.33-6.561-1.548-9.789l-.395-5.871 2.695-.783c1.483-.431 3.76-.789 5.06-.797l2.363-.013-.418 8.759c-.23 4.817-.745 9.334-1.145 10.038-1.613 2.835-.601 3.571 3.897 2.832 2.544-.417 4.74-.963 4.882-1.213.142-.249-.216-2.449-.795-4.887-1.476-6.211-1.05-31.982.695-41.974.427-2.449.208-2.575-4.479-2.575-2.71 0-4.917.332-4.903.739.014.406.472 2.115 1.02 3.798.547 1.683 1.006 5.613 1.02 8.732.027 6.474-.573 7.135-6.496 7.165l-3.387.017.5-7.038c.275-3.87.945-8.553 1.49-10.405l.99-3.368H16.5l1.72 4.456zm42.588 2.28c3.475 4.281 3.738 16.277.62 28.254-2.008 7.71-3.861 9.906-6.648 7.878-2.567-1.871-3.788-6.209-3.722-13.231.084-8.988 1.495-16.225 4.033-20.688 2.57-4.52 3.539-4.894 5.717-2.212zm102.936 13.653c-.319 2.23-.886 2.87-2.543 2.87-1.174 0-2.03-.418-1.902-.93.128-.512 1.172-3.922 2.321-7.579l2.089-6.648.222 4.708c.122 2.589.038 5.999-.187 7.579zm-18.789 16.931c.51 4.779-.876 10.811-2.62 11.401-1.531.518-3.342-5.62-3.342-11.323 0-2.822.528-5.274 1.504-6.991l1.504-2.644 1.259 2.732c.692 1.502 1.454 4.574 1.695 6.825z" fill="#fff" stroke="#000" stroke-width="2" mask="url(#a)"/><defs><filter id="filter0_d_144_256" x=".431" y=".213" width="178.833" height="136.274" filterUnits="userSpaceOnUse" color-interpolation-filters="sRGB"><feFlood flood-opacity="0" result="BackgroundImageFix"/><feColorMatrix in="SourceAlpha" values="0 0 0 0 0 0 0 0 0 0 0 0 0 0 0 0 0 0 127 0" result="hardAlpha"/><feOffset dy="4"/><feGaussianBlur stdDeviation="2"/><feComposite in2="hardAlpha" operator="out"/><feColorMatrix values="0 0 0 0 0 0 0 0 0 0 0 0 0 0 0 0 0 0 0.25 0"/><feBlend in2="BackgroundImageFix" result="effect1_dropShadow_144_256"/><feBlend in="SourceGraphic" in2="effect1_dropShadow_144_256" result="shape"/></filter></defs></svg>