<svg width="180" height="148" viewBox="0 0 180 148" fill="none" xmlns="http://www.w3.org/2000/svg">
<g filter="url(#filter0_d_144_256)">
<path d="M174.677 109.904L166.349 127.987H161.879L149.11 126.362L88.4829 123.295L81.8004 122.868L54.1987 121.289L47.6131 120.702L15.847 118.651L8.81644 118.202L7.32435 120.876L5 116.406L70.4692 1L123.929 48.9505L174.677 109.904Z" fill="#D9D9D9"/>
<path d="M70.4692 7.70494L8.81644 118.202M70.4692 7.70494L161.879 127.987M70.4692 7.70494V4.35247V1M70.4692 1L123.929 48.9505L174.677 109.904L166.349 127.987H161.879M70.4692 1L5 116.406L7.32435 120.876L8.81644 118.202M8.81644 118.202L15.847 118.651M161.879 127.987L149.11 126.362M54.1987 121.289V69.171L81.8004 70.0688V122.868M54.1987 121.289L81.8004 122.868M54.1987 121.289L47.6131 120.702M149.11 126.362L106.497 70.9665L88.4829 70.3117V123.295M149.11 126.362L88.4829 123.295M15.847 118.651L43.1581 68.6641L47.6131 68.8676V120.702M15.847 118.651L47.6131 120.702M81.8004 122.868L88.4829 123.295M70.4692 18.6767L46.8242 61.954L101.46 63.6572L100.287 61.954L70.4692 18.6767Z" stroke="#814500"/>
</g>
<path d="M99.8195 62.7541L48.0429 61.0145L70.5002 20.135L99.8195 62.7541Z" fill="black" fill-opacity="0.71"/>
<path d="M46.7961 120.159L16.853 118.42L43.0532 69.7124H46.7961V94.9359V120.159Z" fill="black" fill-opacity="0.71"/>
<path d="M81.371 70.5822L54.9056 69.7124V120.529L81.371 122.269V70.5822Z" fill="black" fill-opacity="0.71"/>
<path d="M106.059 71.452L89.2157 71.187V122.769L147.23 125.378L106.059 71.452Z" fill="black" fill-opacity="0.71"/>
<path d="M7.49492 119.29L5.62347 116.68L69.8763 3.60938V7.08848L7.49492 119.29Z" fill="#662020"/>
<path d="M165.944 127.118H162.201L71.124 7.95817V2.7395L124.148 49.7075L174.053 109.722L165.944 127.118Z" fill="#662020"/>
<mask id="path-9-inside-1_144_256" fill="white">
<path fill-rule="evenodd" clip-rule="evenodd" d="M53.3836 89.7606C49.4715 91.8099 47.0236 95.6794 45.1926 102.715C41.7574 115.905 43.4158 129.853 49.3121 137.363C55.9325 145.795 60.7552 145.299 66.2595 135.621C71.1692 126.988 72.7977 118.603 71.5173 108.545C70.5371 100.84 67.5377 93.8383 64.1604 91.3643C61.0239 89.0678 56.1044 88.3357 53.3836 89.7606ZM141.982 93.3437C139.605 95.3697 136.771 98.9234 135.684 101.242C131.273 110.651 129.762 127.552 132.498 136.868C135.156 145.915 142.363 149.853 147.055 144.82C151.092 140.493 152.809 128.114 150.473 120.173C149.13 115.608 147.465 114.077 143.843 114.077C141.46 114.077 140.51 114.837 138.524 118.33L136.106 122.581L136.58 118.636C137.27 112.891 139.532 106.938 141.81 104.867C144.54 102.384 145.689 102.595 146.985 105.814C148.037 108.423 145.5 102.5 147.895 99.4852C147.785 94.4895 147.382 90.2356 146.999 90.0312C146.616 89.8267 144.359 91.3178 141.982 93.3437ZM75.1036 91.7156C72.2129 92.1722 72.1613 92.2554 73.189 94.8347C74.3523 97.7543 74.5487 113.006 73.6478 130.427C73.2683 137.777 72.8402 140.444 71.8341 141.738C71.1094 142.669 70.6673 143.696 70.8511 144.02C71.0356 144.343 74.3586 144.268 78.2359 143.852L85.2851 143.098L83.2974 138.686C81.2547 134.154 80.9769 131.581 81.1676 118.974L81.2693 112.241L82.9312 117.749C83.8453 120.779 84.9627 125.904 85.4146 129.137C86.6274 137.813 87.8945 136.25 90.8534 122.425C92.2487 115.906 93.6682 110.122 94.008 109.571C94.3659 108.99 94.4271 114.171 94.1528 121.916C93.7803 132.453 93.3835 135.998 92.2695 138.748L90.859 142.232H98.5648C102.803 142.232 106.262 141.819 106.251 141.314C106.241 140.81 105.301 138.79 104.162 136.825L102.093 133.256V116.555C102.093 103.596 102.326 99.3224 103.136 97.4789C104.153 95.1616 104.222 95.1873 105.921 98.5378C107.632 101.911 107.663 102.331 107.663 122.48V142.986L114.103 142.578C122.708 142.032 127.756 141.052 128.18 139.845C128.372 139.299 128.73 133.967 128.976 127.996L129.424 117.137L126.817 123.998C123.739 132.094 121.353 134.888 117.518 134.888C114.297 134.888 114.143 134.613 113.517 127.732C113.075 122.862 113.132 122.646 114.867 122.646C116.187 122.646 116.98 123.672 117.792 126.432C118.404 128.515 119.074 129.922 119.28 129.56C119.485 129.198 119.426 123.307 119.148 116.469L118.642 104.037L117.389 108.958C116.7 111.665 115.436 114.537 114.581 115.343C113.091 116.744 113.045 116.642 113.478 112.839C113.726 110.659 113.929 107.841 113.929 106.579C113.929 102.897 116.446 99.3873 119.089 99.3873C120.886 99.3873 121.902 100.303 123.266 103.154C124.257 105.225 125.073 107.566 125.079 108.357C125.085 109.189 124.688 106.879 125.079 105.814C125.45 104.804 126.444 103.565 126.45 100.443L126.461 94.7637L113.859 94.3034C106.928 94.05 98.9818 94.0451 96.2004 94.2924L91.1431 94.7417L90.2839 101.495C89.8112 105.209 89.0363 109.871 88.5622 111.854L87.6996 115.46L85.4974 106.801C84.286 102.039 83.2953 97.5952 83.2953 96.928C83.2953 94.8298 80.5647 90.8085 79.292 91.0325C78.6216 91.15 76.7369 91.4573 75.1036 91.7156ZM159.168 93.5726C159.148 97.1337 157.033 105.282 154.344 112.151C153.177 115.136 152.221 118.994 152.221 120.724C152.221 123.834 152.284 123.87 157.654 123.87H163.085L162.676 130.418C162.451 134.02 161.702 138.48 161.012 140.33L159.759 143.694L165.911 142.816C169.295 142.333 172.197 141.723 172.361 141.46C172.524 141.198 171.857 139.473 170.879 137.63C169.668 135.347 168.989 132.42 168.753 128.461C168.428 123.019 168.509 122.646 170.021 122.646C170.909 122.646 172.074 123.744 172.608 125.087C174.052 128.709 174.5 126.871 174.5 117.332V108.753L172.889 111.416C172.003 112.88 170.702 114.077 169.999 114.077C168.817 114.077 168.753 113.193 169.154 102.448L169.589 90.8183H164.386C159.459 90.8183 159.182 90.964 159.168 93.5726ZM18.2197 96.4983C19 100.991 19 102.115 19 118.5C19 132.183 19.7124 136.136 18.8553 138.287C17.8012 140.935 17.834 141.008 20.0737 141.022C21.3401 141.029 23.5826 141.385 25.0579 141.814L27.7398 142.594L26.5868 138.675C25.9533 136.519 25.2563 132.114 25.0391 128.886L24.6437 123.015L27.3394 122.232C28.8217 121.801 31.0983 121.443 32.3982 121.435L34.7618 121.422L34.3441 130.181C34.1143 134.998 33.5991 139.515 33.1988 140.219C31.5864 143.054 32.598 143.79 37.0956 143.051C39.6395 142.634 41.8368 142.088 41.9781 141.838C42.1202 141.589 41.7623 139.389 41.1831 136.951C39.7071 130.74 40.1339 104.969 41.8779 94.9767C42.3054 92.5284 42.0861 92.4023 37.3991 92.4023C34.6887 92.4023 32.4824 92.7341 32.4956 93.1405C32.5096 93.5469 32.9684 95.2558 33.5156 96.939C34.0628 98.6222 34.5216 102.552 34.5356 105.671C34.5634 112.145 33.9633 112.806 28.0398 112.836L24.6527 112.853L25.1526 105.815C25.4276 101.945 26.0981 97.2622 26.6432 95.4101L27.6332 92.0424H22.067H16.5L18.2197 96.4983ZM60.8081 98.7789C64.2829 103.059 64.5461 115.055 61.4277 127.032C59.4198 134.742 57.5665 136.938 54.7802 134.91C52.2126 133.039 50.9921 128.701 51.0582 121.679C51.1425 112.691 52.553 105.454 55.0914 100.991C57.6619 96.4714 58.6296 96.0968 60.8081 98.7789ZM163.744 112.431C163.425 114.661 162.858 115.301 161.201 115.301C160.027 115.301 159.171 114.883 159.299 114.371C159.427 113.859 160.471 110.449 161.62 106.792L163.709 100.144L163.931 104.852C164.053 107.441 163.969 110.851 163.744 112.431ZM144.955 129.362C145.465 134.141 144.079 140.173 142.335 140.763C140.804 141.281 138.993 135.143 138.993 129.44C138.993 126.618 139.521 124.166 140.497 122.449L142.001 119.805L143.26 122.537C143.952 124.039 144.714 127.111 144.955 129.362Z"/>
</mask>
<path fill-rule="evenodd" clip-rule="evenodd" d="M53.3836 89.7606C49.4715 91.8099 47.0236 95.6794 45.1926 102.715C41.7574 115.905 43.4158 129.853 49.3121 137.363C55.9325 145.795 60.7552 145.299 66.2595 135.621C71.1692 126.988 72.7977 118.603 71.5173 108.545C70.5371 100.84 67.5377 93.8383 64.1604 91.3643C61.0239 89.0678 56.1044 88.3357 53.3836 89.7606ZM141.982 93.3437C139.605 95.3697 136.771 98.9234 135.684 101.242C131.273 110.651 129.762 127.552 132.498 136.868C135.156 145.915 142.363 149.853 147.055 144.82C151.092 140.493 152.809 128.114 150.473 120.173C149.13 115.608 147.465 114.077 143.843 114.077C141.46 114.077 140.51 114.837 138.524 118.33L136.106 122.581L136.58 118.636C137.27 112.891 139.532 106.938 141.81 104.867C144.54 102.384 145.689 102.595 146.985 105.814C148.037 108.423 145.5 102.5 147.895 99.4852C147.785 94.4895 147.382 90.2356 146.999 90.0312C146.616 89.8267 144.359 91.3178 141.982 93.3437ZM75.1036 91.7156C72.2129 92.1722 72.1613 92.2554 73.189 94.8347C74.3523 97.7543 74.5487 113.006 73.6478 130.427C73.2683 137.777 72.8402 140.444 71.8341 141.738C71.1094 142.669 70.6673 143.696 70.8511 144.02C71.0356 144.343 74.3586 144.268 78.2359 143.852L85.2851 143.098L83.2974 138.686C81.2547 134.154 80.9769 131.581 81.1676 118.974L81.2693 112.241L82.9312 117.749C83.8453 120.779 84.9627 125.904 85.4146 129.137C86.6274 137.813 87.8945 136.25 90.8534 122.425C92.2487 115.906 93.6682 110.122 94.008 109.571C94.3659 108.99 94.4271 114.171 94.1528 121.916C93.7803 132.453 93.3835 135.998 92.2695 138.748L90.859 142.232H98.5648C102.803 142.232 106.262 141.819 106.251 141.314C106.241 140.81 105.301 138.79 104.162 136.825L102.093 133.256V116.555C102.093 103.596 102.326 99.3224 103.136 97.4789C104.153 95.1616 104.222 95.1873 105.921 98.5378C107.632 101.911 107.663 102.331 107.663 122.48V142.986L114.103 142.578C122.708 142.032 127.756 141.052 128.18 139.845C128.372 139.299 128.73 133.967 128.976 127.996L129.424 117.137L126.817 123.998C123.739 132.094 121.353 134.888 117.518 134.888C114.297 134.888 114.143 134.613 113.517 127.732C113.075 122.862 113.132 122.646 114.867 122.646C116.187 122.646 116.98 123.672 117.792 126.432C118.404 128.515 119.074 129.922 119.28 129.56C119.485 129.198 119.426 123.307 119.148 116.469L118.642 104.037L117.389 108.958C116.7 111.665 115.436 114.537 114.581 115.343C113.091 116.744 113.045 116.642 113.478 112.839C113.726 110.659 113.929 107.841 113.929 106.579C113.929 102.897 116.446 99.3873 119.089 99.3873C120.886 99.3873 121.902 100.303 123.266 103.154C124.257 105.225 125.073 107.566 125.079 108.357C125.085 109.189 124.688 106.879 125.079 105.814C125.45 104.804 126.444 103.565 126.45 100.443L126.461 94.7637L113.859 94.3034C106.928 94.05 98.9818 94.0451 96.2004 94.2924L91.1431 94.7417L90.2839 101.495C89.8112 105.209 89.0363 109.871 88.5622 111.854L87.6996 115.46L85.4974 106.801C84.286 102.039 83.2953 97.5952 83.2953 96.928C83.2953 94.8298 80.5647 90.8085 79.292 91.0325C78.6216 91.15 76.7369 91.4573 75.1036 91.7156ZM159.168 93.5726C159.148 97.1337 157.033 105.282 154.344 112.151C153.177 115.136 152.221 118.994 152.221 120.724C152.221 123.834 152.284 123.87 157.654 123.87H163.085L162.676 130.418C162.451 134.02 161.702 138.48 161.012 140.33L159.759 143.694L165.911 142.816C169.295 142.333 172.197 141.723 172.361 141.46C172.524 141.198 171.857 139.473 170.879 137.63C169.668 135.347 168.989 132.42 168.753 128.461C168.428 123.019 168.509 122.646 170.021 122.646C170.909 122.646 172.074 123.744 172.608 125.087C174.052 128.709 174.5 126.871 174.5 117.332V108.753L172.889 111.416C172.003 112.88 170.702 114.077 169.999 114.077C168.817 114.077 168.753 113.193 169.154 102.448L169.589 90.8183H164.386C159.459 90.8183 159.182 90.964 159.168 93.5726ZM18.2197 96.4983C19 100.991 19 102.115 19 118.5C19 132.183 19.7124 136.136 18.8553 138.287C17.8012 140.935 17.834 141.008 20.0737 141.022C21.3401 141.029 23.5826 141.385 25.0579 141.814L27.7398 142.594L26.5868 138.675C25.9533 136.519 25.2563 132.114 25.0391 128.886L24.6437 123.015L27.3394 122.232C28.8217 121.801 31.0983 121.443 32.3982 121.435L34.7618 121.422L34.3441 130.181C34.1143 134.998 33.5991 139.515 33.1988 140.219C31.5864 143.054 32.598 143.79 37.0956 143.051C39.6395 142.634 41.8368 142.088 41.9781 141.838C42.1202 141.589 41.7623 139.389 41.1831 136.951C39.7071 130.74 40.1339 104.969 41.8779 94.9767C42.3054 92.5284 42.0861 92.4023 37.3991 92.4023C34.6887 92.4023 32.4824 92.7341 32.4956 93.1405C32.5096 93.5469 32.9684 95.2558 33.5156 96.939C34.0628 98.6222 34.5216 102.552 34.5356 105.671C34.5634 112.145 33.9633 112.806 28.0398 112.836L24.6527 112.853L25.1526 105.815C25.4276 101.945 26.0981 97.2622 26.6432 95.4101L27.6332 92.0424H22.067H16.5L18.2197 96.4983ZM60.8081 98.7789C64.2829 103.059 64.5461 115.055 61.4277 127.032C59.4198 134.742 57.5665 136.938 54.7802 134.91C52.2126 133.039 50.9921 128.701 51.0582 121.679C51.1425 112.691 52.553 105.454 55.0914 100.991C57.6619 96.4714 58.6296 96.0968 60.8081 98.7789ZM163.744 112.431C163.425 114.661 162.858 115.301 161.201 115.301C160.027 115.301 159.171 114.883 159.299 114.371C159.427 113.859 160.471 110.449 161.62 106.792L163.709 100.144L163.931 104.852C164.053 107.441 163.969 110.851 163.744 112.431ZM144.955 129.362C145.465 134.141 144.079 140.173 142.335 140.763C140.804 141.281 138.993 135.143 138.993 129.44C138.993 126.618 139.521 124.166 140.497 122.449L142.001 119.805L143.26 122.537C143.952 124.039 144.714 127.111 144.955 129.362Z" fill="white" stroke="black" stroke-width="2" mask="url(#path-9-inside-1_144_256)"/>
<defs>
<filter id="filter0_d_144_256" x="0.43103" y="0.213135" width="178.833" height="136.274" filterUnits="userSpaceOnUse" color-interpolation-filters="sRGB">
<feFlood flood-opacity="0" result="BackgroundImageFix"/>
<feColorMatrix in="SourceAlpha" type="matrix" values="0 0 0 0 0 0 0 0 0 0 0 0 0 0 0 0 0 0 127 0" result="hardAlpha"/>
<feOffset dy="4"/>
<feGaussianBlur stdDeviation="2"/>
<feComposite in2="hardAlpha" operator="out"/>
<feColorMatrix type="matrix" values="0 0 0 0 0 0 0 0 0 0 0 0 0 0 0 0 0 0 0.25 0"/>
<feBlend mode="normal" in2="BackgroundImageFix" result="effect1_dropShadow_144_256"/>
<feBlend mode="normal" in="SourceGraphic" in2="effect1_dropShadow_144_256" result="shape"/>
</filter>
</defs>
</svg>
