<svg width="70" height="171" viewBox="0 0 70 171" fill="none" xmlns="http://www.w3.org/2000/svg">
<path d="M2.78462 95.9339C1.93798 94.877 1.23494 93.3569 0.746136 91.5265C0.257336 89.696 1.58034e-06 87.6196 1.58034e-06 85.506C1.58034e-06 83.3924 0.257336 81.316 0.746136 79.4856C1.23494 77.6551 1.93798 76.135 2.78462 75.0781L61.6454 1.61326C62.4921 0.556415 63.4526 8.01279e-06 64.4302 -5.41163e-06C65.4079 -1.88361e-05 66.3684 0.556346 67.2151 1.61317C68.0618 2.66999 68.7649 4.19005 69.2537 6.02054C69.7426 7.85102 70 9.92745 70 12.0411V158.959C70 161.073 69.7426 163.149 69.2537 164.979C68.7649 166.81 68.0618 168.33 67.2151 169.387C66.3684 170.444 65.4079 171 64.4302 171C63.4526 171 62.4921 170.444 61.6454 169.387L2.78462 95.9219V95.9339Z" fill="#5AA5EA"/>
</svg>
