<svg width="45" height="42" viewBox="0 0 45 42" fill="none" xmlns="http://www.w3.org/2000/svg">
<path d="M7.143 1L37.5597 1C39.1731 1 40.7204 1.42143 41.8612 2.17157C43.0021 2.92172 43.643 3.93913 43.643 5V37C43.643 38.0609 43.0021 39.0783 41.8612 39.8284C40.7204 40.5786 39.1731 41 37.5597 41H7.143C5.52959 41 3.98228 40.5786 2.84143 39.8284C1.70058 39.0783 1.05966 38.0609 1.05966 37L1.05966 5C1.05966 3.93913 1.70058 2.92172 2.84143 2.17157C3.98228 1.42143 5.52959 1 7.143 1Z" stroke="white" stroke-width="2"/>
<path d="M1 10.9419L43.5834 10.9419" stroke="white" stroke-width="1.5" stroke-linecap="round"/>
<path d="M21.2037 17.016V37.7671H22.875V17.016H21.2037Z" fill="black" fill-opacity="0.71"/>
<path d="M21.2037 17.016C15.6178 11.4641 11.5066 11.2747 6.44107 17.016V36.2634M21.2037 17.016V37.7671M21.2037 17.016H22.875M6.44107 36.2634C12.0675 32.2123 17.8612 33.2559 21.2037 37.7671M6.44107 36.2634L21.2037 37.7671M21.2037 37.7671H22.875M22.875 17.016C27.9405 11.2747 32.0517 11.4641 37.6377 17.016V37.7671M22.875 17.016V37.7671M22.875 37.7671C28.5014 33.7159 34.2952 33.2559 37.6377 37.7671M22.875 37.7671H37.6377" stroke="white"/>
</svg>
