<svg width="45" height="42" viewBox="0 0 45 42" fill="none" xmlns="http://www.w3.org/2000/svg">
<path d="M7.14256 1L37.5571 1C39.1704 1 40.7176 1.42143 41.8584 2.17157C42.9991 2.92172 43.64 3.93913 43.64 5V37C43.64 38.0609 42.9991 39.0783 41.8584 39.8284C40.7176 40.5786 39.1704 41 37.5571 41H7.14256C5.52927 41 3.98206 40.5786 2.84129 39.8284C1.70052 39.0783 1.05965 38.0609 1.05965 37L1.05965 5C1.05965 3.93913 1.70052 2.92172 2.84129 2.17157C3.98206 1.42143 5.52927 1 7.14256 1Z" stroke="white" stroke-width="2"/>
<path d="M1 10.9417L43.5804 10.9418" stroke="white" stroke-width="1.5" stroke-linecap="round"/>
<path d="M11.5593 33.4456V21.9551C11.5593 21.4401 11.8351 20.947 12.3273 20.5834L19.5189 15.249C19.7623 15.0686 20.0514 14.9256 20.3695 14.8281C20.6876 14.7307 21.0284 14.6806 21.3726 14.6809H29.8873C30.5817 14.6809 31.2477 14.8854 31.7387 15.2495C32.2298 15.6135 32.5056 16.1073 32.5056 16.6221V33.4456C32.5056 33.9604 32.2298 34.4542 31.7387 34.8182C31.2477 35.1823 30.5817 35.3868 29.8873 35.3868H14.1776C13.4831 35.3868 12.8172 35.1823 12.3261 34.8182C11.8351 34.4542 11.5593 33.9604 11.5593 33.4456Z" stroke="white" stroke-width="2"/>
<path d="M11.5593 22.4456H19.4142C20.1086 22.4456 20.7745 22.2411 21.2656 21.8771C21.7566 21.513 22.0324 21.0193 22.0324 20.5044V14.6809" stroke="white" stroke-width="1.5"/>
</svg>
