<svg width="32" height="40" viewBox="0 0 32 40" fill="none" xmlns="http://www.w3.org/2000/svg">
<path fill-rule="evenodd" clip-rule="evenodd" d="M2.6094 3.67562C-1.87426 10.3739 -0.412051 20.7241 5.70846 25.6082C7.80523 27.2825 8.42718 28.6476 8.53779 31.8169C8.61542 34.0517 9.16071 36.0431 9.75064 36.243C10.3396 36.442 10.8218 37.2329 10.8218 38.0001C10.8218 39.0185 12.1346 39.3957 15.6732 39.3957C19.2118 39.3957 20.5246 39.0185 20.5246 38.0001C20.5246 37.2329 21.0068 36.442 21.5958 36.243C22.1857 36.0431 22.731 34.0517 22.8086 31.8169C22.9193 28.6476 23.5412 27.2825 25.638 25.6082C31.9196 20.5951 33.375 10.824 28.87 3.91396C27.467 1.76099 25.573 0 24.6609 0C23.2676 0 23.3268 0.22948 25.0335 1.44287C32.2242 6.55544 31.5256 19.8535 23.7974 24.9621C22.0315 26.1292 20.4053 27.7493 20.1831 28.5619C19.9609 29.3744 19.729 26.3922 19.6669 21.9335C19.5611 14.3016 17.4828 5.90935 15.6994 5.90935C13.9791 5.90935 11.7853 14.7941 11.6796 22.1926C11.6175 26.5084 11.3836 29.3498 11.1595 28.5067C10.9354 27.6646 9.45277 26.1962 7.86442 25.2438C4.37918 23.1538 1.11808 17.0357 1.12293 12.5968C1.12681 9.23632 4.0163 3.37424 6.72531 1.23112C8.14774 0.105383 8.14386 0 6.67583 0C5.79288 0 3.96293 1.65363 2.6094 3.67562ZM6.82622 3.82335C4.0978 6.59385 3.08677 8.42575 3.15857 10.4714L3.25754 13.296L4.2511 10.1611C4.7964 8.43659 6.52738 5.77738 8.09632 4.25178C10.4492 1.96387 11.8008 1.47734 15.812 1.47734C20.187 1.47734 21.0059 1.84569 23.9953 5.15591C25.8223 7.17986 27.3166 9.72778 27.3166 10.819C27.3166 11.9103 27.7231 12.8036 28.2189 12.8036C29.2891 12.8036 28.118 8.16968 26.3016 5.21796C24.3038 1.97077 20.0987 0 15.1667 0C11.1478 0 10.1368 0.463884 6.82622 3.82335ZM8.80656 5.83352C7.24635 7.41722 5.9879 9.74354 6.00828 11.0042C6.04224 13.04 6.1936 12.9523 7.36473 10.2212C10.2183 3.56629 16.8094 1.98751 21.5696 6.81841C23.1298 8.40211 24.4057 10.3965 24.4057 11.2504C24.4057 12.1043 24.7822 12.8036 25.2411 12.8036C27.0313 12.8036 24.9976 7.73042 22.276 5.40607C18.1115 1.84963 12.5577 2.02592 8.80656 5.83352ZM16.9249 10.8338C17.3033 12.3043 16.954 12.8036 15.5481 12.8036C13.9655 12.8036 13.8297 12.4894 14.7029 10.8338C15.2744 9.75043 15.8935 8.86403 16.0798 8.86403C16.2651 8.86403 16.6454 9.75043 16.9249 10.8338ZM17.6138 22.1601C17.6138 28.8898 17.4411 29.5468 15.6732 29.5468C13.9054 29.5468 13.7327 28.8898 13.7327 22.1601C13.7327 15.4303 13.9054 14.7734 15.6732 14.7734C17.4411 14.7734 17.6138 15.4303 17.6138 22.1601ZM20.5246 31.5165C20.5246 32.0582 18.3415 32.5014 15.6732 32.5014C13.005 32.5014 10.8218 32.0582 10.8218 31.5165C10.8218 30.9749 13.005 30.5317 15.6732 30.5317C18.3415 30.5317 20.5246 30.9749 20.5246 31.5165ZM20.5246 34.4712C20.5246 35.0129 18.3415 35.4561 15.6732 35.4561C13.005 35.4561 10.8218 35.0129 10.8218 34.4712C10.8218 33.9295 13.005 33.4863 15.6732 33.4863C18.3415 33.4863 20.5246 33.9295 20.5246 34.4712ZM19.0692 37.4259C18.7393 37.9676 17.2111 38.4108 15.6732 38.4108C14.1353 38.4108 12.6071 37.9676 12.2772 37.4259C11.9144 36.83 13.2563 36.441 15.6732 36.441C18.0902 36.441 19.4321 36.83 19.0692 37.4259Z" fill="black"/>
</svg>
