<svg width="77" height="21" viewBox="0 0 77 21" fill="none" xmlns="http://www.w3.org/2000/svg">
<path d="M42.72 14.3452V18.6951C42.72 19.3531 43.3446 19.8318 43.98 19.6607L75.7132 11.1158C76.6152 10.8729 76.6152 10.1271 75.7132 9.88422L44.3768 1.44614C43.6036 1.23794 42.72 1.56636 42.72 2.06192V7.47082C42.72 8.03437 42.2546 8.48661 41.6912 8.4704L2.16667 7.33333C1.52233 7.33333 1 7.63714 1 8.0119L3.18937 9.70978C3.7056 10.1101 3.7056 10.8899 3.18937 11.2902L1 12.9881C1 13.3629 1.52233 13.6667 2.16667 13.6667L41.6912 12.5296C42.2546 12.5134 42.72 12.9656 42.72 13.5292V14.3452Z" fill="#FF9A03" fill-opacity="0.98"/>
<path d="M2.16667 13.6667L41.6912 12.5296C42.2546 12.5134 42.72 12.9656 42.72 13.5292V14.3452V18.6951C42.72 19.3531 43.3446 19.8318 43.98 19.6607L75.7132 11.1158M2.16667 13.6667C1.52233 13.6667 1 13.3629 1 12.9881M2.16667 13.6667H1.67857C1.30381 13.6667 1 13.3629 1 12.9881V12.9881M1 12.9881L3.18937 11.2902C3.7056 10.8899 3.7056 10.1101 3.18937 9.70978L1 8.0119M1 8.0119C1 7.63714 1.52233 7.33333 2.16667 7.33333M1 8.0119V8.0119C1 7.63714 1.30381 7.33333 1.67857 7.33333H2.16667M2.16667 7.33333L41.6912 8.4704C42.2546 8.48661 42.72 8.03437 42.72 7.47082V2.06192M42.72 2.06192C42.72 1.56636 43.6036 1.23794 44.3768 1.44614M42.72 2.06192V2.06192C42.72 1.52641 43.2283 1.13687 43.7454 1.27611L44.3768 1.44614M44.3768 1.44614L75.7132 9.88422M75.7132 9.88422C76.6152 10.1271 76.6152 10.8729 75.7132 11.1158M75.7132 9.88422V9.88422C76.3424 10.0536 76.3424 10.9464 75.7132 11.1158V11.1158" stroke="black"/>
</svg>
