<svg width="91" height="23" viewBox="0 0 91 23" fill="none" xmlns="http://www.w3.org/2000/svg">
<path d="M40.8211 16.1078V21.2197C40.8211 21.8731 40.2048 22.3509 39.5721 22.1882L1.71089 12.4518C0.641624 12.1769 0.641624 11.3326 1.71089 11.0576L38.8571 1.50506C39.7737 1.26937 40.8211 1.64116 40.8211 2.20217V8.46271C40.8211 9.02575 41.2858 9.4778 41.8486 9.46234L88.8932 8.16981C89.6569 8.16981 90.2761 8.51374 90.2761 8.938L87.558 10.9511C87.0182 11.3509 87.0182 12.1585 87.558 12.5583L90.2761 14.5714C90.2761 14.9957 89.6569 15.3396 88.8932 15.3396L41.8486 14.0471C41.2858 14.0316 40.8211 14.4837 40.8211 15.0467V16.1078Z" fill="#FF9A03" fill-opacity="0.98"/>
<path d="M88.8932 15.3396L41.8486 14.0471C41.2858 14.0316 40.8211 14.4837 40.8211 15.0467V16.1078V21.2197C40.8211 21.8731 40.2048 22.3509 39.5721 22.1882L1.7109 12.4518M88.8932 15.3396C89.6569 15.3396 90.2761 14.9957 90.2761 14.5714M88.8932 15.3396H89.5079C89.9322 15.3396 90.2761 14.9957 90.2761 14.5714V14.5714M90.2761 14.5714L87.558 12.5583C87.0182 12.1585 87.0182 11.3509 87.558 10.9511L90.2761 8.938M90.2761 8.938C90.2761 8.51374 89.6569 8.16981 88.8932 8.16981M90.2761 8.938V8.938C90.2761 8.51374 89.9322 8.16981 89.5079 8.16981H88.8932M88.8932 8.16981L41.8486 9.46234C41.2858 9.4778 40.8211 9.02576 40.8211 8.46271V2.20217M40.8211 2.20217C40.8211 1.64116 39.7737 1.26937 38.8571 1.50506M40.8211 2.20217V2.20217C40.8211 1.59316 40.2467 1.14773 39.6568 1.29941L38.8571 1.50506M38.8571 1.50506L1.7109 11.0576M1.7109 11.0576C0.641624 11.3326 0.641624 12.1769 1.7109 12.4518M1.7109 11.0576V11.0576C0.990199 11.2429 0.990199 12.2665 1.7109 12.4518V12.4518" stroke="black"/>
</svg>
