<svg width="43" height="43" viewBox="0 0 43 43" fill="none" xmlns="http://www.w3.org/2000/svg">
<path d="M0 21.5C0 9.62588 9.62588 0 21.5 0V0C33.3741 0 43 9.62588 43 21.5V21.5C43 33.3741 33.3741 43 21.5 43V43C9.62588 43 0 33.3741 0 21.5V21.5Z" fill="#1E1E1E"/>
<path d="M16.5582 32.0552C15.8616 32.0552 15.9801 31.7261 15.7398 30.896L13.6916 22.4598L29.4582 10.7534" fill="#D7DBE0"/>
<path d="M16.5583 32.0552C17.0958 32.0552 17.3332 31.7475 17.6333 31.3825L20.5 27.8939L16.9241 25.1953" fill="#B4BCC2"/>
<path d="M16.9238 25.1961L25.5883 33.2076C26.5771 33.8904 27.2905 33.5368 27.5369 32.0589L31.0638 11.2587C31.4248 9.44689 30.5119 8.62487 29.5659 9.16235L8.85607 19.1565C7.44245 19.8662 7.45087 20.8532 8.59843 21.2929L13.913 23.3691L26.217 13.6543C26.7978 13.2135 27.331 13.4503 26.8935 13.9364" fill="white"/>
</svg>
