<svg width="43" height="43" viewBox="0 0 43 43" fill="none" xmlns="http://www.w3.org/2000/svg">
<circle cx="21.5" cy="21.5" r="21.5" fill="#1E1E1E"/>
<path d="M35.8257 14.768C35.0674 13.252 33.979 11.891 32.597 10.718C31.215 9.55615 29.6129 8.6377 27.8274 7.9959C25.9807 7.33197 24.0239 7 22.006 7C19.9881 7 18.0313 7.33197 16.1846 7.9959C14.399 8.6377 12.7969 9.54508 11.415 10.718C10.033 11.891 8.94456 13.252 8.18631 14.768C7.40361 16.3393 7 18.0213 7 19.7475C7 22.7684 8.24743 25.6676 10.5344 27.9693L9.31142 34L15.8177 31.3775C17.7622 32.1299 19.8291 32.5061 21.9937 32.5061C24.0117 32.5061 25.9684 32.1742 27.8151 31.5102C29.6007 30.8684 31.2028 29.9611 32.5848 28.7881C33.9667 27.6152 35.0552 26.2541 35.8134 24.7381C36.5961 23.1668 36.9997 21.4848 36.9997 19.7586C37.012 18.0213 36.6084 16.3504 35.8257 14.768Z" fill="white"/>
<path d="M29.8468 21.7892C29.002 21.4845 28.3847 21.2971 27.9461 21.1799C27.6699 21.1096 27.0201 20.8986 26.7926 21.0275C26.0778 21.4494 25.3142 22.6446 24.502 22.8673C22.4875 22.586 20.6193 21.59 19.1572 20.5705C18.5073 20.1252 17.3052 18.8597 17.0452 18.5199C16.9965 18.1683 17.8737 17.6996 18.0687 17.4301C19.0759 16.6098 18.3124 16.0942 18.1824 15.7544C17.955 15.4029 17.5651 14.7701 17.2239 14.2545C16.9315 13.9147 16.8665 13.4108 16.3466 13.2233C14.1372 12.403 12.8701 14.0436 12.3502 14.899C9.21483 20.3479 28.0598 30.7184 31.8937 23.5704C32.0887 22.9493 32.0074 22.7149 31.715 22.4337C31.1302 22.1408 30.4479 22.0119 29.8468 21.7892Z" fill="#1E1E1E"/>
</svg>
