<svg width="43" height="43" viewBox="0 0 43 43" fill="none" xmlns="http://www.w3.org/2000/svg">
<circle cx="21.5" cy="21.5" r="21.5" fill="#1E1E1E"/>
<path d="M17.2774 12.6366L16.6051 11.8468L17.2774 10.355H21.1097H23.0595L23.799 11.1448L24.3369 20.6223L25.2782 21.2366L30.0517 11.1448H35.3631L36.5061 11.8468V12.6366L35.3631 15.1815L33.6823 18.6917L31.867 22.1142V23.7815L32.741 25.0101L33.6823 26.1509L34.8925 27.7305L36.1027 29.7489L36.5061 31.2407V31.855L35.3631 32.6448H32.741H30.0517L28.4381 31.2407L27.0262 29.0468L26.0849 27.7305H25.2782L24.3369 29.0468V30.5387V31.855L23.799 32.6448H23.0595H21.1097H19.3616L17.9497 31.855L15.6638 30.5387L13.714 28.3448L12.1004 26.1509L11.0247 23.7815L9.41109 21.2366L8.53706 18.6917L7.39409 15.1815L6.92346 14.1285L6.31836 13.4264V12.6366V11.8468L6.92346 11.1448H11.4953L12.1004 11.8468L12.9745 12.6366L13.714 15.1815L14.5881 17.2876L15.6638 19.3938L16.6051 20.6223L17.2774 21.2366L17.9497 20.6223V13.4264L17.2774 12.6366Z" fill="white"/>
</svg>
