<svg width="45" height="42" viewBox="0 0 45 42" fill="none" xmlns="http://www.w3.org/2000/svg">
<path d="M7.14297 1L37.5596 1C39.173 1 40.7204 1.42143 41.8612 2.17157C43.0021 2.92172 43.643 3.93913 43.643 5V37C43.643 38.0609 43.0021 39.0783 41.8612 39.8284C40.7204 40.5786 39.173 41 37.5596 41H7.14297C5.52957 41 3.98224 40.5786 2.8414 39.8284C1.70055 39.0783 1.05963 38.0609 1.05963 37L1.05963 5C1.05963 3.93913 1.70055 2.92172 2.8414 2.17157C3.98224 1.42143 5.52957 1 7.14297 1Z" stroke="white" stroke-width="2"/>
<path d="M1 10.9419L43.5834 10.9419" stroke="white" stroke-width="1.5" stroke-linecap="round"/>
<path d="M20.4888 13.618V27.6079C20.4888 28.8403 19.1152 29.5755 18.0897 28.8919L18.0417 28.8599C17.5412 28.5263 16.8872 28.5341 16.3947 28.8796V28.8796C15.428 29.5579 14.0981 28.8664 14.0981 27.6854V13.618M20.4888 13.618V13.618C20.4888 13.1604 20.1178 12.7894 19.6602 12.7894H14.3994C14.233 12.7894 14.0981 12.9243 14.0981 13.0907V13.0907V13.618M20.4888 13.618H29.4959C30.4944 13.618 31.3038 14.4274 31.3038 15.4258V15.4258M14.0981 13.618H11.3943V13.618C11.0708 13.618 10.8086 13.8803 10.8086 14.2038V36.8353C10.8086 37.1588 11.0708 37.421 11.3943 37.421V37.421M11.3943 37.421V37.421C10.3985 35.945 12.4763 34.7846 14.2568 34.7846H21.3038C26.8266 34.7846 31.3038 30.3074 31.3038 24.7846V15.4258M11.3943 37.421C19.0533 37.421 23.6956 37.421 30.7302 37.421V37.421C32.133 37.421 33.2701 36.2839 33.2701 34.8811V17.3922C33.2701 16.3062 32.3897 15.4258 31.3038 15.4258V15.4258M26.224 24.0883H22.1274M22.1274 22.2052H24.9131M24.9131 20.4727H27.9445H22.1274M14.0981 31.7716V32.9768M16.4741 31.7716V32.9768M18.8501 31.7716V32.9768M21.3081 31.7716V32.9768M23.5202 31.7716V32.9768M25.9782 31.7716V32.9768M28.4361 31.7716V32.9768" stroke="white"/>
</svg>
