<svg xmlns="http://www.w3.org/2000/svg" width="57" height="42" viewBox="0 0 57 42" fill="none">
  <path d="M21.2132 8.67919L48.9912 8.6685M21.2088 17.8788L48.9868 17.8681M48.9829 26.0462L21.205 26.0568M48.9791 34.2235L21.2011 34.2335M6.57221 40.8271L50.4116 40.4632C53.173 40.4402 55.3881 38.1832 55.3593 35.4219L55.0522 5.99974C55.0234 3.23847 52.7615 1.01859 50.0002 1.04151L6.16077 1.4054C3.39944 1.42832 1.1843 3.68535 1.21312 6.44663L1.52021 35.8688C1.54903 38.6301 3.81089 40.85 6.57221 40.8271Z" stroke="black" stroke-width="2"/>
  <path d="M5.34119 12.229L10.7091 15.4027L16.78 9.30312" stroke="black" stroke-width="2"/>
  <path d="M5.4486 20.8237L10.8142 23.8191L16.8895 18.0562" stroke="black" stroke-width="2"/>
  <path d="M5.55718 29.3984L10.925 32.5721L16.996 26.4726" stroke="black" stroke-width="2"/>
</svg>