<svg width="45" height="42" viewBox="0 0 45 42" fill="none" xmlns="http://www.w3.org/2000/svg">
<path d="M7.29165 1L37.7083 1C39.3217 1 40.869 1.42143 42.0099 2.17157C43.1507 2.92172 43.7916 3.93913 43.7916 5V37C43.7916 38.0609 43.1507 39.0783 42.0099 39.8284C40.869 40.5786 39.3217 41 37.7083 41H7.29165C5.67825 41 4.13093 40.5786 2.99008 39.8284C1.84923 39.0783 1.20831 38.0609 1.20831 37L1.20831 5C1.20831 3.93913 1.84923 2.92172 2.99008 2.17157C4.13093 1.42143 5.67825 1 7.29165 1Z" stroke="white" stroke-width="2"/>
<path d="M1.14868 10.9419L43.732 10.9419" stroke="white" stroke-width="1.5" stroke-linecap="round"/>
<path d="M30.2957 32.7481C19.4625 31.7532 11.9265 26.3328 11.256 19.1378C11.2066 18.605 11.8037 18.1618 12.5588 18.1369L17.9889 17.9477C18.2847 17.9375 18.5775 17.9931 18.826 18.1068C19.0745 18.2204 19.2661 18.3864 19.3735 18.5811L20.3517 20.3517C20.4749 20.5751 20.4799 20.8224 20.3655 21.0481C20.2512 21.2739 20.0252 21.4629 19.7292 21.5806L16.5887 22.8294C16.4002 22.9044 16.2387 23.0089 16.1166 23.1349C15.9945 23.2609 15.9152 23.4051 15.8846 23.5562C15.854 23.7073 15.8731 23.8613 15.9404 24.0064C16.0076 24.1515 16.1213 24.2837 16.2725 24.3929L22.9954 29.2407C23.1458 29.349 23.3292 29.4316 23.5316 29.4823C23.7341 29.533 23.9503 29.5504 24.1638 29.5332C24.3772 29.516 24.5823 29.4647 24.7634 29.3831C24.9445 29.3015 25.0967 29.1918 25.2086 29.0624L27.1706 26.7939C27.3427 26.5951 27.6082 26.4453 27.9207 26.3703C28.2333 26.2953 28.5732 26.3 28.8813 26.3836L31.3853 27.0608C31.6718 27.1383 31.9147 27.2796 32.0772 27.4632C32.2397 27.6469 32.313 27.8629 32.2859 28.0785L31.8102 31.8687C31.7964 31.9977 31.7458 32.1233 31.6614 32.2381C31.577 32.3528 31.4605 32.4543 31.319 32.5365C31.1775 32.6187 31.0139 32.6798 30.838 32.7161C30.6621 32.7525 30.4776 32.7634 30.2957 32.7481Z" fill="white" stroke="white" stroke-linecap="round" stroke-linejoin="round"/>
<path d="M32.3945 17.6818L26.4056 21.9062M26.4056 21.9062L26.1176 18.59M26.4056 21.9062L31.1073 22.1103" stroke="white" stroke-width="2" stroke-linecap="round" stroke-linejoin="round"/>
</svg>
